<?xml version="1.0" standalone="no"?>
<!DOCTYPE svg PUBLIC "-//W3C//DTD SVG 20010904//EN"
 "http://www.w3.org/TR/2001/REC-SVG-20010904/DTD/svg10.dtd">
<svg version="1.0" xmlns="http://www.w3.org/2000/svg"
 width="268.000000pt" height="268.000000pt" viewBox="0 0 268.000000 268.000000"
 preserveAspectRatio="xMidYMid meet">
<metadata>
Created by potrace 1.14, written by Peter Selinger 2001-2017
</metadata>
<g transform="translate(0.000000,268.000000) scale(0.100000,-0.100000)"
fill="#000000" stroke="none">
<path d="M363 2539 c-13 -5 -20 -15 -18 -26 1 -10 -2 -24 -8 -30 -5 -8 -6 -13
0 -13 8 0 10 -102 3 -120 -1 -3 -1 -9 0 -15 6 -25 5 -167 -2 -178 -4 -6 -2
-17 3 -24 7 -8 7 -19 -1 -34 -9 -15 -9 -19 -1 -14 13 7 9 -35 -5 -56 -4 -7 -3
-9 2 -6 12 7 10 -215 -1 -234 -5 -7 -4 -10 2 -6 12 8 11 -112 -2 -132 -5 -8
-4 -12 1 -8 5 3 10 -17 10 -44 1 -27 -3 -49 -9 -49 -6 0 -6 -5 0 -12 12 -16
11 -108 -1 -127 -6 -9 -5 -12 1 -8 12 7 11 -92 -1 -112 -6 -10 -5 -12 2 -7 7
4 12 1 12 -8 0 -9 -6 -16 -12 -16 -9 0 -9 -3 -3 -8 14 -9 14 -643 1 -635 -5 4
-6 0 -1 -8 13 -20 14 -120 2 -112 -6 4 -7 1 -2 -8 13 -20 13 -69 1 -69 -7 0
-8 -3 -1 -8 12 -9 14 -162 1 -162 -5 0 -4 -6 1 -12 6 -7 9 -26 8 -41 -1 -17 2
-24 7 -19 5 5 24 6 42 2 19 -4 41 -3 51 3 12 7 20 5 26 -4 5 -8 9 -9 9 -4 0 6
11 10 25 10 14 0 25 -2 25 -5 0 -7 87 -3 99 5 6 3 11 1 11 -5 0 -6 5 -8 12 -4
15 10 78 11 78 1 0 -4 9 -3 20 3 11 6 20 7 20 3 0 -9 84 -8 99 2 6 3 11 1 11
-5 0 -6 5 -8 13 -3 18 11 36 12 43 2 3 -5 13 -5 25 1 14 8 19 7 19 -2 0 -8 3
-9 10 -2 7 7 28 8 55 4 24 -4 51 -3 59 2 10 6 16 5 16 -2 0 -6 5 -8 13 -3 18
11 36 12 43 2 3 -5 13 -5 25 1 14 8 19 7 19 -2 0 -8 3 -9 10 -2 7 7 28 8 55 4
24 -4 51 -3 59 2 10 6 16 5 16 -2 0 -6 5 -8 13 -3 18 11 36 12 43 2 3 -5 13
-5 25 1 14 8 19 7 19 -2 0 -8 3 -9 10 -2 7 7 28 8 55 4 24 -4 51 -3 59 2 10 6
16 5 16 -2 0 -6 5 -8 13 -3 18 11 37 12 37 2 0 -6 8 -5 20 1 14 8 20 8 20 0 0
-8 6 -8 20 0 11 6 20 7 20 3 0 -9 88 -8 97 1 3 3 13 1 22 -4 10 -5 23 -5 31 0
9 5 19 5 27 -2 9 -7 13 -7 13 2 0 10 3 10 14 1 9 -8 16 -8 20 -2 4 5 18 8 31
5 14 -2 25 0 25 5 0 6 9 8 20 6 11 -2 20 1 20 6 0 6 5 7 10 4 6 -3 10 -1 10 4
0 6 7 11 15 11 8 0 15 5 15 11 0 5 4 8 9 4 5 -3 12 4 16 15 3 11 10 20 15 20
5 0 12 9 15 20 4 11 10 18 15 15 7 -4 17 28 22 73 1 6 5 12 9 12 9 0 6 26 -4
36 -4 4 -2 13 4 21 8 8 8 13 1 13 -6 0 -9 8 -7 18 2 9 4 17 5 17 1 0 3 17 4
38 1 20 -1 37 -5 37 -4 0 -4 14 1 30 5 19 5 30 -1 30 -6 0 -6 7 -2 17 11 23
10 44 -2 62 -5 10 -4 16 3 19 8 2 9 9 2 21 -5 10 -6 21 -3 25 10 10 10 56 0
56 -5 0 -4 7 3 15 7 8 8 15 3 15 -5 0 -9 9 -9 20 0 11 3 20 6 20 3 0 5 12 4
28 -1 15 -3 27 -4 27 -1 0 -2 15 -3 33 -1 17 1 32 4 32 8 0 5 33 -5 48 -4 7
-2 12 4 12 6 0 8 5 4 12 -10 16 -13 48 -4 48 4 0 5 12 3 28 -7 52 -8 92 -2 92
8 0 5 32 -5 48 -4 7 -2 12 4 12 6 0 8 5 4 12 -11 18 -12 48 -2 48 5 0 4 9 -2
20 -6 11 -7 20 -2 20 10 0 9 30 -2 48 -4 7 -2 12 4 12 6 0 8 5 4 12 -10 16
-13 48 -4 48 4 0 5 12 3 28 -7 52 -8 92 -2 92 8 0 5 32 -5 48 -4 7 -2 12 4 12
6 0 8 5 4 12 -10 16 -13 48 -4 48 4 0 5 12 3 28 -7 50 -8 92 -3 92 3 0 5 11 5
25 0 14 -4 25 -9 25 -5 0 -3 7 4 15 7 9 8 15 2 15 -6 0 -9 8 -7 18 2 9 4 17 5
17 1 0 3 12 4 28 1 15 -2 27 -7 27 -4 0 -5 5 -2 11 10 14 14 59 6 59 -4 0 -7
9 -7 20 0 11 3 20 6 20 3 0 5 12 4 28 -1 15 -3 27 -4 27 -1 0 -2 15 -3 33 -1
17 1 32 5 32 4 0 1 18 -7 39 -7 22 -11 42 -8 45 4 3 1 6 -6 6 -7 0 -9 5 -6 10
3 6 -1 13 -9 16 -9 3 -14 9 -11 13 5 9 -42 61 -56 61 -6 0 -8 4 -5 9 4 5 -2 8
-11 7 -10 -2 -28 5 -41 14 -13 11 -31 16 -43 13 -12 -3 -25 0 -29 7 -5 8 -13
9 -21 4 -20 -12 -39 -14 -39 -3 0 6 -8 5 -20 -1 -14 -8 -20 -8 -20 0 0 8 -6 8
-20 0 -14 -8 -20 -8 -20 0 0 8 -6 8 -20 0 -11 -6 -20 -7 -20 -3 0 10 -41 10
-58 -1 -7 -4 -12 -2 -12 4 0 6 -5 8 -12 4 -16 -10 -58 -12 -58 -3 0 9 -21 6
-37 -4 -8 -5 -13 -3 -13 3 0 6 -5 8 -12 4 -16 -10 -58 -12 -58 -3 0 9 -27 6
-36 -4 -4 -4 -13 -2 -21 4 -7 6 -13 7 -13 2 0 -5 -9 -9 -20 -9 -11 0 -20 4
-20 9 0 4 -5 5 -12 1 -17 -11 -68 -10 -68 0 0 6 -5 5 -11 -1 -7 -7 -20 -8 -34
-3 -12 4 -28 4 -35 0 -9 -5 -20 -4 -27 2 -9 7 -13 7 -13 0 0 -11 -18 -11 -36
1 -6 3 -14 3 -18 0 -10 -10 -36 -13 -36 -4 0 4 -7 8 -15 8 -8 0 -15 -4 -15 -8
0 -9 -20 -7 -37 4 -6 4 -14 3 -17 -2 -3 -5 -21 -5 -41 -1 -19 4 -35 5 -35 0 0
-9 -63 -6 -79 4 -6 4 -11 4 -11 -1 0 -4 -11 -8 -25 -8 -14 0 -25 3 -25 6 0 8
-45 3 -59 -6 -6 -3 -11 -1 -11 6 0 9 -3 10 -11 2 -6 -6 -25 -7 -49 -3 -24 4
-43 3 -49 -3 -8 -8 -11 -7 -11 3 0 10 -3 11 -11 3 -6 -6 -23 -8 -43 -3 -19 4
-41 3 -50 -2 -10 -6 -16 -5 -16 2 0 6 -5 8 -12 3 -17 -10 -78 -10 -78 0 0 4
-9 3 -19 -3 -11 -5 -21 -6 -23 -1 -2 5 -13 5 -25 0z"/>
</g>
</svg>
